<svg xmlns="http://www.w3.org/2000/svg" xmlns:xlink="http://www.w3.org/1999/xlink" preserveAspectRatio="xMidYMid" width="1020" height="19" viewBox="0 0 1020 19">
  <defs>
    <style>
      .cls-1 {
        fill: #efefef;
        opacity: 0.1;
        fill-rule: evenodd;
      }
    </style>
  </defs>
  <path d="M1076.000,19.000 L1076.000,11.000 L1085.000,11.000 L1085.000,19.000 L1076.000,19.000 ZM1076.000,-0.000 L1085.000,-0.000 L1085.000,8.000 L1076.000,8.000 L1076.000,-0.000 ZM1064.000,11.000 L1073.000,11.000 L1073.000,19.000 L1064.000,19.000 L1064.000,11.000 ZM1064.000,-0.000 L1073.000,-0.000 L1073.000,8.000 L1064.000,8.000 L1064.000,-0.000 ZM1052.000,11.000 L1061.000,11.000 L1061.000,19.000 L1052.000,19.000 L1052.000,11.000 ZM1052.000,-0.000 L1061.000,-0.000 L1061.000,8.000 L1052.000,8.000 L1052.000,-0.000 ZM1040.000,11.000 L1049.000,11.000 L1049.000,19.000 L1040.000,19.000 L1040.000,11.000 ZM1040.000,-0.000 L1049.000,-0.000 L1049.000,8.000 L1040.000,8.000 L1040.000,-0.000 ZM1028.000,11.000 L1037.000,11.000 L1037.000,19.000 L1028.000,19.000 L1028.000,11.000 ZM1028.000,-0.000 L1037.000,-0.000 L1037.000,8.000 L1028.000,8.000 L1028.000,-0.000 ZM1016.000,11.000 L1025.000,11.000 L1025.000,19.000 L1016.000,19.000 L1016.000,11.000 ZM1016.000,-0.000 L1025.000,-0.000 L1025.000,8.000 L1016.000,8.000 L1016.000,-0.000 ZM1004.000,11.000 L1013.000,11.000 L1013.000,19.000 L1004.000,19.000 L1004.000,11.000 ZM1004.000,-0.000 L1013.000,-0.000 L1013.000,8.000 L1004.000,8.000 L1004.000,-0.000 ZM992.000,11.000 L1001.000,11.000 L1001.000,19.000 L992.000,19.000 L992.000,11.000 ZM992.000,-0.000 L1001.000,-0.000 L1001.000,8.000 L992.000,8.000 L992.000,-0.000 ZM980.000,11.000 L989.000,11.000 L989.000,19.000 L980.000,19.000 L980.000,11.000 ZM980.000,-0.000 L989.000,-0.000 L989.000,8.000 L980.000,8.000 L980.000,-0.000 ZM968.000,11.000 L977.000,11.000 L977.000,19.000 L968.000,19.000 L968.000,11.000 ZM968.000,-0.000 L977.000,-0.000 L977.000,8.000 L968.000,8.000 L968.000,-0.000 ZM956.000,11.000 L965.000,11.000 L965.000,19.000 L956.000,19.000 L956.000,11.000 ZM956.000,-0.000 L965.000,-0.000 L965.000,8.000 L956.000,8.000 L956.000,-0.000 ZM944.000,11.000 L953.000,11.000 L953.000,19.000 L944.000,19.000 L944.000,11.000 ZM944.000,-0.000 L953.000,-0.000 L953.000,8.000 L944.000,8.000 L944.000,-0.000 ZM932.000,11.000 L941.000,11.000 L941.000,19.000 L932.000,19.000 L932.000,11.000 ZM932.000,-0.000 L941.000,-0.000 L941.000,8.000 L932.000,8.000 L932.000,-0.000 ZM920.000,11.000 L929.000,11.000 L929.000,19.000 L920.000,19.000 L920.000,11.000 ZM920.000,-0.000 L929.000,-0.000 L929.000,8.000 L920.000,8.000 L920.000,-0.000 ZM908.000,11.000 L917.000,11.000 L917.000,19.000 L908.000,19.000 L908.000,11.000 ZM908.000,-0.000 L917.000,-0.000 L917.000,8.000 L908.000,8.000 L908.000,-0.000 ZM896.000,11.000 L905.000,11.000 L905.000,19.000 L896.000,19.000 L896.000,11.000 ZM896.000,-0.000 L905.000,-0.000 L905.000,8.000 L896.000,8.000 L896.000,-0.000 ZM884.000,11.000 L893.000,11.000 L893.000,19.000 L884.000,19.000 L884.000,11.000 ZM884.000,-0.000 L893.000,-0.000 L893.000,8.000 L884.000,8.000 L884.000,-0.000 ZM872.000,11.000 L881.000,11.000 L881.000,19.000 L872.000,19.000 L872.000,11.000 ZM872.000,-0.000 L881.000,-0.000 L881.000,8.000 L872.000,8.000 L872.000,-0.000 ZM860.000,11.000 L869.000,11.000 L869.000,19.000 L860.000,19.000 L860.000,11.000 ZM860.000,-0.000 L869.000,-0.000 L869.000,8.000 L860.000,8.000 L860.000,-0.000 ZM848.000,11.000 L857.000,11.000 L857.000,19.000 L848.000,19.000 L848.000,11.000 ZM848.000,-0.000 L857.000,-0.000 L857.000,8.000 L848.000,8.000 L848.000,-0.000 ZM836.000,11.000 L845.000,11.000 L845.000,19.000 L836.000,19.000 L836.000,11.000 ZM836.000,-0.000 L845.000,-0.000 L845.000,8.000 L836.000,8.000 L836.000,-0.000 ZM824.000,11.000 L833.000,11.000 L833.000,19.000 L824.000,19.000 L824.000,11.000 ZM824.000,-0.000 L833.000,-0.000 L833.000,8.000 L824.000,8.000 L824.000,-0.000 ZM812.000,11.000 L821.000,11.000 L821.000,19.000 L812.000,19.000 L812.000,11.000 ZM812.000,-0.000 L821.000,-0.000 L821.000,8.000 L812.000,8.000 L812.000,-0.000 ZM800.000,11.000 L809.000,11.000 L809.000,19.000 L800.000,19.000 L800.000,11.000 ZM800.000,-0.000 L809.000,-0.000 L809.000,8.000 L800.000,8.000 L800.000,-0.000 ZM788.000,11.000 L797.000,11.000 L797.000,19.000 L788.000,19.000 L788.000,11.000 ZM788.000,-0.000 L797.000,-0.000 L797.000,8.000 L788.000,8.000 L788.000,-0.000 ZM776.000,11.000 L785.000,11.000 L785.000,19.000 L776.000,19.000 L776.000,11.000 ZM776.000,-0.000 L785.000,-0.000 L785.000,8.000 L776.000,8.000 L776.000,-0.000 ZM764.000,11.000 L773.000,11.000 L773.000,19.000 L764.000,19.000 L764.000,11.000 ZM764.000,-0.000 L773.000,-0.000 L773.000,8.000 L764.000,8.000 L764.000,-0.000 ZM752.000,11.000 L761.000,11.000 L761.000,19.000 L752.000,19.000 L752.000,11.000 ZM752.000,-0.000 L761.000,-0.000 L761.000,8.000 L752.000,8.000 L752.000,-0.000 ZM740.000,11.000 L749.000,11.000 L749.000,19.000 L740.000,19.000 L740.000,11.000 ZM740.000,-0.000 L749.000,-0.000 L749.000,8.000 L740.000,8.000 L740.000,-0.000 ZM728.000,11.000 L737.000,11.000 L737.000,19.000 L728.000,19.000 L728.000,11.000 ZM728.000,-0.000 L737.000,-0.000 L737.000,8.000 L728.000,8.000 L728.000,-0.000 ZM716.000,11.000 L725.000,11.000 L725.000,19.000 L716.000,19.000 L716.000,11.000 ZM716.000,-0.000 L725.000,-0.000 L725.000,8.000 L716.000,8.000 L716.000,-0.000 ZM704.000,11.000 L713.000,11.000 L713.000,19.000 L704.000,19.000 L704.000,11.000 ZM704.000,-0.000 L713.000,-0.000 L713.000,8.000 L704.000,8.000 L704.000,-0.000 ZM692.000,11.000 L701.000,11.000 L701.000,19.000 L692.000,19.000 L692.000,11.000 ZM692.000,-0.000 L701.000,-0.000 L701.000,8.000 L692.000,8.000 L692.000,-0.000 ZM680.000,11.000 L689.000,11.000 L689.000,19.000 L680.000,19.000 L680.000,11.000 ZM680.000,-0.000 L689.000,-0.000 L689.000,8.000 L680.000,8.000 L680.000,-0.000 ZM668.000,11.000 L677.000,11.000 L677.000,19.000 L668.000,19.000 L668.000,11.000 ZM668.000,-0.000 L677.000,-0.000 L677.000,8.000 L668.000,8.000 L668.000,-0.000 ZM656.000,11.000 L665.000,11.000 L665.000,19.000 L656.000,19.000 L656.000,11.000 ZM656.000,-0.000 L665.000,-0.000 L665.000,8.000 L656.000,8.000 L656.000,-0.000 ZM644.000,11.000 L653.000,11.000 L653.000,19.000 L644.000,19.000 L644.000,11.000 ZM644.000,-0.000 L653.000,-0.000 L653.000,8.000 L644.000,8.000 L644.000,-0.000 ZM632.000,11.000 L641.000,11.000 L641.000,19.000 L632.000,19.000 L632.000,11.000 ZM632.000,-0.000 L641.000,-0.000 L641.000,8.000 L632.000,8.000 L632.000,-0.000 ZM620.000,11.000 L629.000,11.000 L629.000,19.000 L620.000,19.000 L620.000,11.000 ZM620.000,-0.000 L629.000,-0.000 L629.000,8.000 L620.000,8.000 L620.000,-0.000 ZM608.000,11.000 L617.000,11.000 L617.000,19.000 L608.000,19.000 L608.000,11.000 ZM608.000,-0.000 L617.000,-0.000 L617.000,8.000 L608.000,8.000 L608.000,-0.000 ZM596.000,11.000 L605.000,11.000 L605.000,19.000 L596.000,19.000 L596.000,11.000 ZM596.000,-0.000 L605.000,-0.000 L605.000,8.000 L596.000,8.000 L596.000,-0.000 ZM584.000,11.000 L593.000,11.000 L593.000,19.000 L584.000,19.000 L584.000,11.000 ZM584.000,-0.000 L593.000,-0.000 L593.000,8.000 L584.000,8.000 L584.000,-0.000 ZM572.000,11.000 L581.000,11.000 L581.000,19.000 L572.000,19.000 L572.000,11.000 ZM572.000,-0.000 L581.000,-0.000 L581.000,8.000 L572.000,8.000 L572.000,-0.000 ZM560.000,11.000 L569.000,11.000 L569.000,19.000 L560.000,19.000 L560.000,11.000 ZM560.000,-0.000 L569.000,-0.000 L569.000,8.000 L560.000,8.000 L560.000,-0.000 ZM548.000,11.000 L557.000,11.000 L557.000,19.000 L548.000,19.000 L548.000,11.000 ZM548.000,-0.000 L557.000,-0.000 L557.000,8.000 L548.000,8.000 L548.000,-0.000 ZM536.000,11.000 L545.000,11.000 L545.000,19.000 L536.000,19.000 L536.000,11.000 ZM536.000,-0.000 L545.000,-0.000 L545.000,8.000 L536.000,8.000 L536.000,-0.000 ZM524.000,11.000 L533.000,11.000 L533.000,19.000 L524.000,19.000 L524.000,11.000 ZM524.000,-0.000 L533.000,-0.000 L533.000,8.000 L524.000,8.000 L524.000,-0.000 ZM512.000,11.000 L521.000,11.000 L521.000,19.000 L512.000,19.000 L512.000,11.000 ZM512.000,-0.000 L521.000,-0.000 L521.000,8.000 L512.000,8.000 L512.000,-0.000 ZM500.000,11.000 L509.000,11.000 L509.000,19.000 L500.000,19.000 L500.000,11.000 ZM500.000,-0.000 L509.000,-0.000 L509.000,8.000 L500.000,8.000 L500.000,-0.000 ZM488.000,11.000 L497.000,11.000 L497.000,19.000 L488.000,19.000 L488.000,11.000 ZM488.000,-0.000 L497.000,-0.000 L497.000,8.000 L488.000,8.000 L488.000,-0.000 ZM476.000,11.000 L485.000,11.000 L485.000,19.000 L476.000,19.000 L476.000,11.000 ZM476.000,-0.000 L485.000,-0.000 L485.000,8.000 L476.000,8.000 L476.000,-0.000 ZM464.000,11.000 L473.000,11.000 L473.000,19.000 L464.000,19.000 L464.000,11.000 ZM464.000,-0.000 L473.000,-0.000 L473.000,8.000 L464.000,8.000 L464.000,-0.000 ZM452.000,11.000 L461.000,11.000 L461.000,19.000 L452.000,19.000 L452.000,11.000 ZM452.000,-0.000 L461.000,-0.000 L461.000,8.000 L452.000,8.000 L452.000,-0.000 ZM440.000,11.000 L449.000,11.000 L449.000,19.000 L440.000,19.000 L440.000,11.000 ZM440.000,-0.000 L449.000,-0.000 L449.000,8.000 L440.000,8.000 L440.000,-0.000 ZM428.000,11.000 L437.000,11.000 L437.000,19.000 L428.000,19.000 L428.000,11.000 ZM428.000,-0.000 L437.000,-0.000 L437.000,8.000 L428.000,8.000 L428.000,-0.000 ZM416.000,11.000 L425.000,11.000 L425.000,19.000 L416.000,19.000 L416.000,11.000 ZM416.000,-0.000 L425.000,-0.000 L425.000,8.000 L416.000,8.000 L416.000,-0.000 ZM404.000,11.000 L413.000,11.000 L413.000,19.000 L404.000,19.000 L404.000,11.000 ZM404.000,-0.000 L413.000,-0.000 L413.000,8.000 L404.000,8.000 L404.000,-0.000 ZM392.000,11.000 L401.000,11.000 L401.000,19.000 L392.000,19.000 L392.000,11.000 ZM392.000,-0.000 L401.000,-0.000 L401.000,8.000 L392.000,8.000 L392.000,-0.000 ZM380.000,11.000 L389.000,11.000 L389.000,19.000 L380.000,19.000 L380.000,11.000 ZM380.000,-0.000 L389.000,-0.000 L389.000,8.000 L380.000,8.000 L380.000,-0.000 ZM368.000,11.000 L377.000,11.000 L377.000,19.000 L368.000,19.000 L368.000,11.000 ZM368.000,-0.000 L377.000,-0.000 L377.000,8.000 L368.000,8.000 L368.000,-0.000 ZM356.000,11.000 L365.000,11.000 L365.000,19.000 L356.000,19.000 L356.000,11.000 ZM356.000,-0.000 L365.000,-0.000 L365.000,8.000 L356.000,8.000 L356.000,-0.000 ZM344.000,11.000 L353.000,11.000 L353.000,19.000 L344.000,19.000 L344.000,11.000 ZM344.000,-0.000 L353.000,-0.000 L353.000,8.000 L344.000,8.000 L344.000,-0.000 ZM332.000,11.000 L341.000,11.000 L341.000,19.000 L332.000,19.000 L332.000,11.000 ZM332.000,-0.000 L341.000,-0.000 L341.000,8.000 L332.000,8.000 L332.000,-0.000 ZM320.000,11.000 L329.000,11.000 L329.000,19.000 L320.000,19.000 L320.000,11.000 ZM320.000,-0.000 L329.000,-0.000 L329.000,8.000 L320.000,8.000 L320.000,-0.000 ZM308.000,11.000 L317.000,11.000 L317.000,19.000 L308.000,19.000 L308.000,11.000 ZM308.000,-0.000 L317.000,-0.000 L317.000,8.000 L308.000,8.000 L308.000,-0.000 ZM296.000,11.000 L305.000,11.000 L305.000,19.000 L296.000,19.000 L296.000,11.000 ZM296.000,-0.000 L305.000,-0.000 L305.000,8.000 L296.000,8.000 L296.000,-0.000 ZM284.000,11.000 L293.000,11.000 L293.000,19.000 L284.000,19.000 L284.000,11.000 ZM284.000,-0.000 L293.000,-0.000 L293.000,8.000 L284.000,8.000 L284.000,-0.000 ZM272.000,11.000 L281.000,11.000 L281.000,19.000 L272.000,19.000 L272.000,11.000 ZM272.000,-0.000 L281.000,-0.000 L281.000,8.000 L272.000,8.000 L272.000,-0.000 ZM260.000,11.000 L269.000,11.000 L269.000,19.000 L260.000,19.000 L260.000,11.000 ZM260.000,-0.000 L269.000,-0.000 L269.000,8.000 L260.000,8.000 L260.000,-0.000 ZM248.000,11.000 L257.000,11.000 L257.000,19.000 L248.000,19.000 L248.000,11.000 ZM248.000,-0.000 L257.000,-0.000 L257.000,8.000 L248.000,8.000 L248.000,-0.000 ZM236.000,11.000 L245.000,11.000 L245.000,19.000 L236.000,19.000 L236.000,11.000 ZM236.000,-0.000 L245.000,-0.000 L245.000,8.000 L236.000,8.000 L236.000,-0.000 ZM224.000,11.000 L233.000,11.000 L233.000,19.000 L224.000,19.000 L224.000,11.000 ZM224.000,-0.000 L233.000,-0.000 L233.000,8.000 L224.000,8.000 L224.000,-0.000 ZM212.000,11.000 L221.000,11.000 L221.000,19.000 L212.000,19.000 L212.000,11.000 ZM212.000,-0.000 L221.000,-0.000 L221.000,8.000 L212.000,8.000 L212.000,-0.000 ZM200.000,11.000 L209.000,11.000 L209.000,19.000 L200.000,19.000 L200.000,11.000 ZM200.000,-0.000 L209.000,-0.000 L209.000,8.000 L200.000,8.000 L200.000,-0.000 ZM188.000,11.000 L197.000,11.000 L197.000,19.000 L188.000,19.000 L188.000,11.000 ZM188.000,-0.000 L197.000,-0.000 L197.000,8.000 L188.000,8.000 L188.000,-0.000 ZM176.000,11.000 L185.000,11.000 L185.000,19.000 L176.000,19.000 L176.000,11.000 ZM176.000,-0.000 L185.000,-0.000 L185.000,8.000 L176.000,8.000 L176.000,-0.000 ZM164.000,11.000 L173.000,11.000 L173.000,19.000 L164.000,19.000 L164.000,11.000 ZM164.000,-0.000 L173.000,-0.000 L173.000,8.000 L164.000,8.000 L164.000,-0.000 ZM152.000,11.000 L161.000,11.000 L161.000,19.000 L152.000,19.000 L152.000,11.000 ZM152.000,-0.000 L161.000,-0.000 L161.000,8.000 L152.000,8.000 L152.000,-0.000 ZM140.000,11.000 L149.000,11.000 L149.000,19.000 L140.000,19.000 L140.000,11.000 ZM140.000,-0.000 L149.000,-0.000 L149.000,8.000 L140.000,8.000 L140.000,-0.000 ZM128.000,11.000 L137.000,11.000 L137.000,19.000 L128.000,19.000 L128.000,11.000 ZM128.000,-0.000 L137.000,-0.000 L137.000,8.000 L128.000,8.000 L128.000,-0.000 ZM116.000,11.000 L125.000,11.000 L125.000,19.000 L116.000,19.000 L116.000,11.000 ZM116.000,-0.000 L125.000,-0.000 L125.000,8.000 L116.000,8.000 L116.000,-0.000 ZM104.000,11.000 L113.000,11.000 L113.000,19.000 L104.000,19.000 L104.000,11.000 ZM104.000,-0.000 L113.000,-0.000 L113.000,8.000 L104.000,8.000 L104.000,-0.000 ZM92.000,11.000 L101.000,11.000 L101.000,19.000 L92.000,19.000 L92.000,11.000 ZM92.000,-0.000 L101.000,-0.000 L101.000,8.000 L92.000,8.000 L92.000,-0.000 ZM80.000,11.000 L89.000,11.000 L89.000,19.000 L80.000,19.000 L80.000,11.000 ZM80.000,-0.000 L89.000,-0.000 L89.000,8.000 L80.000,8.000 L80.000,-0.000 ZM68.000,11.000 L77.000,11.000 L77.000,19.000 L68.000,19.000 L68.000,11.000 ZM68.000,-0.000 L77.000,-0.000 L77.000,8.000 L68.000,8.000 L68.000,-0.000 ZM56.000,11.000 L65.000,11.000 L65.000,19.000 L56.000,19.000 L56.000,11.000 ZM56.000,-0.000 L65.000,-0.000 L65.000,8.000 L56.000,8.000 L56.000,-0.000 ZM44.000,11.000 L53.000,11.000 L53.000,19.000 L44.000,19.000 L44.000,11.000 ZM44.000,-0.000 L53.000,-0.000 L53.000,8.000 L44.000,8.000 L44.000,-0.000 ZM32.000,11.000 L41.000,11.000 L41.000,19.000 L32.000,19.000 L32.000,11.000 ZM32.000,-0.000 L41.000,-0.000 L41.000,8.000 L32.000,8.000 L32.000,-0.000 ZM20.000,11.000 L29.000,11.000 L29.000,19.000 L20.000,19.000 L20.000,11.000 ZM20.000,-0.000 L29.000,-0.000 L29.000,8.000 L20.000,8.000 L20.000,-0.000 ZM8.000,11.000 L17.000,11.000 L17.000,19.000 L8.000,19.000 L8.000,11.000 ZM8.000,-0.000 L17.000,-0.000 L17.000,8.000 L8.000,8.000 L8.000,-0.000 ZM-4.000,11.000 L5.000,11.000 L5.000,19.000 L-4.000,19.000 L-4.000,11.000 ZM-4.000,-0.000 L5.000,-0.000 L5.000,8.000 L-4.000,8.000 L-4.000,-0.000 ZM-16.000,11.000 L-7.000,11.000 L-7.000,19.000 L-16.000,19.000 L-16.000,11.000 ZM-16.000,-0.000 L-7.000,-0.000 L-7.000,8.000 L-16.000,8.000 L-16.000,-0.000 ZM-28.000,11.000 L-19.000,11.000 L-19.000,19.000 L-28.000,19.000 L-28.000,11.000 ZM-28.000,-0.000 L-19.000,-0.000 L-19.000,8.000 L-28.000,8.000 L-28.000,-0.000 ZM-40.000,11.000 L-31.000,11.000 L-31.000,19.000 L-40.000,19.000 L-40.000,11.000 ZM-40.000,-0.000 L-31.000,-0.000 L-31.000,8.000 L-40.000,8.000 L-40.000,-0.000 ZM-52.000,11.000 L-43.000,11.000 L-43.000,19.000 L-52.000,19.000 L-52.000,11.000 ZM-52.000,-0.000 L-43.000,-0.000 L-43.000,8.000 L-52.000,8.000 L-52.000,-0.000 ZM-64.000,11.000 L-55.000,11.000 L-55.000,19.000 L-64.000,19.000 L-64.000,11.000 ZM-64.000,-0.000 L-55.000,-0.000 L-55.000,8.000 L-64.000,8.000 L-64.000,-0.000 Z" class="cls-1"/>
</svg>
