<?xml version="1.0" encoding="utf-8"?>
<!-- Generator: Adobe Illustrator 19.1.0, SVG Export Plug-In . SVG Version: 6.00 Build 0)  -->
<svg version="1.1" id="Layer_4" xmlns="http://www.w3.org/2000/svg" xmlns:xlink="http://www.w3.org/1999/xlink" x="0px" y="0px"
	 viewBox="0 0 161 326.5" style="enable-background:new 0 0 161 326.5;" xml:space="preserve">
<style type="text/css">
	.st0{fill:none;stroke:#4F5051;stroke-width:5;stroke-miterlimit:10;}
	.st1{fill:none;stroke:#4F5051;stroke-width:2;stroke-miterlimit:10;}
	.st2{fill:none;stroke:#4F5051;stroke-miterlimit:10;}
	.st3{fill:none;stroke:#4F5051;stroke-width:3;stroke-miterlimit:10;}
</style>
<path class="st0" d="M54.7,162c0,0-0.5,142,0,150s7.5,12,26.5,12s25.5-5.5,25.5-15.5S104.2,162,104.2,162s-13,4-26,4
	S54.7,162,54.7,162z"/>
<path class="st1" d="M106.7,310.4c-7.9-2.3-8.8-19.4-8.8-19.4H62.2c0,0-1.7,3.6-2.7,8.8s-1.8,9-5.1,9"/>
<path class="st2" d="M91.6,313.2c0,0.3-0.3,0.6-0.6,0.6H67.3c-0.3,0-0.6-0.3-0.6-0.6v-19.2c0-0.3,0.3-0.6,0.6-0.6H91
	c0.3,0,0.6,0.3,0.6,0.6V313.2z"/>
<circle class="st2" cx="62.9" cy="175.1" r="4.6"/>
<circle class="st2" cx="95.9" cy="175.1" r="4.6"/>
<path class="st0" d="M65.5,2.5l-1.3,7.3c0,0-43,3.1-47.3,3.4s-7.3,2.2-8.5,12.2S4.7,58.3,4,72.5s-2,34-1.3,40.5s0.5,9,10.8,11.5
	S29.7,127,36,140.8S46,166,77.2,166s40-8.8,44.5-25c4-14.3,15.3-14.5,24.8-17s8.8-7.5,8.8-16.3c0,0,0-20.3-1.3-38
	s-3.3-38.3-4.5-46.5s-2-10.5-14-11.5s-42-2.3-42-2.3l-2-7H65.5z"/>
<path class="st0" d="M126.7,108.3c0,0.7-0.6,1.3-1.3,1.3H33c-0.7,0-1.3-0.6-1.3-1.3V41.8c0-0.7,0.6-1.3,1.3-1.3h92.5
	c0.7,0,1.3,0.6,1.3,1.3V108.3z"/>
<path class="st3" d="M63.7,137c0,1.9-1.6,3.5-3.5,3.5h-3c-1.9,0-3.5-1.6-3.5-3.5v-11c0-1.9,1.6-3.5,3.5-3.5h3c1.9,0,3.5,1.6,3.5,3.5
	V137z"/>
<path class="st3" d="M83.7,137c0,1.9-1.6,3.5-3.5,3.5h-3c-1.9,0-3.5-1.6-3.5-3.5v-11c0-1.9,1.6-3.5,3.5-3.5h3c1.9,0,3.5,1.6,3.5,3.5
	V137z"/>
<path class="st3" d="M104.7,137c0,1.9-1.6,3.5-3.5,3.5h-3c-1.9,0-3.5-1.6-3.5-3.5v-11c0-1.9,1.6-3.5,3.5-3.5h3
	c1.9,0,3.5,1.6,3.5,3.5V137z"/>
<circle class="st2" cx="90.4" cy="28.4" r="1.6"/>
<circle class="st2" cx="105.4" cy="28.4" r="1.6"/>
<circle class="st2" cx="118.4" cy="30.4" r="1.6"/>
<path class="st2" d="M30.2,131.5c-4.4,2.8-3.4,2.5-2.4,5s6.1,0,6.1,0"/>
<path class="st2" d="M127.9,130.7c3.8,2,5.1,4.3,3.3,5.8s-6.7-1.9-6.7-1.9"/>
<path class="st3" d="M155.2,105.8c3.7-1,3-3.5,2.7-7.3s-1.8-10-1.3-14.3c0.5-4.2,2.8-3.7,2.8-11.2s-3.7-7.8-4.2-15.8
	S154,46.3,154,43s-2.7-5-2.7-5"/>
</svg>
