<?xml version="1.0" encoding="utf-8"?>
<!-- Generator: Adobe Illustrator 19.1.0, SVG Export Plug-In . SVG Version: 6.00 Build 0)  -->
<svg version="1.1" id="Layer_2" xmlns="http://www.w3.org/2000/svg" xmlns:xlink="http://www.w3.org/1999/xlink" x="0px" y="0px"
	 viewBox="0 0 409 725.3" style="enable-background:new 0 0 409 725.3;" xml:space="preserve">
<style type="text/css">
	.st0{fill:none;stroke:#4F5051;stroke-width:8;stroke-miterlimit:10;}
	.st1{fill:none;stroke:#4F5051;stroke-width:4;stroke-miterlimit:10;}
	.st2{fill:none;stroke:#4F5051;stroke-width:6;stroke-miterlimit:10;}
	.st3{fill:none;stroke:#4F5051;stroke-width:2;stroke-miterlimit:10;}
	.st4{fill:none;stroke:#4F5051;stroke-width:3;stroke-miterlimit:10;}
</style>
<path class="st0" d="M345.3,548.7c0,0,10.7-1.4,15-0.1c4.3,1.3,0.4-22-4.3-23.3c-4.7-1.3-2.4-15.7-1.7-22.5c0.7-6.5,5.7-5.5,5.7-5.5
	s0.7-165.3,0-221s-9.3-133.7-9.3-133.7l-16-3.3c0,0,0-50,0-90.7S311.3,4,279.3,4S124,4,80.7,4S31.3,17.3,30,26s-2.7,11.3-4.7,24.7
	s-6,87.3-6,87.3s-7.3,0-7.3,4S4,252.7,4,312s0,236.7,0,236.7h21.3c0,0,0-109.3,0-128C25.3,402,22.7,394,52,394s56.7,0.7,56.7,0.7
	s1.3-262,1.3-272.7s-18.7-16-24-20.7c-5.3-4.7,0-29.3,0.7-34.7c0.7-5.3,4.7-11.3,15.3-11.3s144.7,0,156,0c11.3,0,14.7,4.7,14.7,13.3
	s-2,31.3-2.7,34c-0.7,2.7-7.3,7.3-12.7,8.7c-5.3,1.3-5.3,22-6,28c-0.7,6,2.7,40.7,2.7,48c0,3.4,1,10.4,2.1,18.4
	c1.2,9.1,2.6,19.5,2.6,27.6c0,7.6-1,17.1-2,26.4c-1,9.4-2,18.6-2,25c0,12.7-0.7,76.7-4,84.7c-3.3,8-4.7,46.7-4.7,46.7"/>
<path class="st1" d="M246.7,382c0,1.4-10.6,18.1-12,18.1H125.2c-1.4,0-2.5-1.1-2.5-2.5c0,0-5-86.3-5-146.3s5-139.5,5-139.5
	c0-1.4,1.1-2.5,2.5-2.5h119.1c1.4,0,2.5,1.1,2.5,2.5c0,0,5.1,31.8,7.1,89.2c0.5,14.7,5.4,12.7,5.4,34c0,8.2-4.6,24.5-4.6,29
	C253.9,342.7,246.7,382,246.7,382z"/>
<circle class="st2" cx="188.7" cy="232.7" r="70.7"/>
<circle class="st2" cx="188.7" cy="232.7" r="51.3"/>
<path class="st2" d="M28,548.7c0,0,15.3,8.6,34.7,8.6s241.3,0,246.7,0c5.3,0,28.7-2.6,32-8.6c3.3-6.1,2.7-64.7,0-101.4
	c-2.7-36.7-1.3-36-1.3-42s-1.3-10.7-18-10.7s-62.7,0-62.7,0l-5.3,22H108l0.7-22"/>
<path class="st2" d="M259.3,522.9c0,1.3-1.1,2.4-2.5,2.4h-173c-1.4,0-2.5-1.1-2.5-2.4v-92.5c0-1.3,1.1-2.4,2.5-2.4h173
	c1.4,0,2.5,1.1,2.5,2.4V522.9z"/>
<path class="st3" d="M288.4,411.4c0,2-1.6,3.5-3.5,3.5h-8.5c-2,0-3.5-1.6-3.5-3.5v-3.6c0-2,1.6-3.5,3.5-3.5h8.5c2,0,3.5,1.6,3.5,3.5
	V411.4z"/>
<path class="st3" d="M289.8,439c0,2-1.6,3.5-3.5,3.5h-8.5c-2,0-3.5-1.6-3.5-3.5v-3.6c0-2,1.6-3.5,3.5-3.5h8.5c2,0,3.5,1.6,3.5,3.5
	V439z"/>
<path class="st3" d="M291.2,466.5c0,2-1.6,3.5-3.5,3.5h-8.5c-2,0-3.5-1.6-3.5-3.5V463c0-2,1.6-3.5,3.5-3.5h8.5c2,0,3.5,1.6,3.5,3.5
	V466.5z"/>
<path class="st3" d="M293,494.1c0,2-1.6,3.5-3.5,3.5H281c-2,0-3.5-1.6-3.5-3.5v-3.6c0-2,1.6-3.5,3.5-3.5h8.5c2,0,3.5,1.6,3.5,3.5
	V494.1z"/>
<path class="st3" d="M294.4,521.7c0,2-1.6,3.5-3.5,3.5h-8.5c-2,0-3.5-1.6-3.5-3.5v-3.6c0-2,1.6-3.5,3.5-3.5h8.5c2,0,3.5,1.6,3.5,3.5
	V521.7z"/>
<path class="st3" d="M321,439c0,2-1.6,3.5-3.5,3.5H309c-2,0-3.5-1.6-3.5-3.5v-3.6c0-2,1.6-3.5,3.5-3.5h8.5c2,0,3.5,1.6,3.5,3.5V439z
	"/>
<path class="st3" d="M322.4,466.5c0,2-1.6,3.5-3.5,3.5h-8.5c-2,0-3.5-1.6-3.5-3.5V463c0-2,1.6-3.5,3.5-3.5h8.5c2,0,3.5,1.6,3.5,3.5
	V466.5z"/>
<path class="st3" d="M324.2,494.1c0,2-1.6,3.5-3.5,3.5h-8.5c-2,0-3.5-1.6-3.5-3.5v-3.6c0-2,1.6-3.5,3.5-3.5h8.5c2,0,3.5,1.6,3.5,3.5
	V494.1z"/>
<path class="st3" d="M325.6,521.7c0,2-1.6,3.5-3.5,3.5h-8.5c-2,0-3.5-1.6-3.5-3.5v-3.6c0-2,1.6-3.5,3.5-3.5h8.5c2,0,3.5,1.6,3.5,3.5
	V521.7z"/>
<ellipse class="st3" cx="309.8" cy="408" rx="5" ry="5.1"/>
<path class="st3" d="M126.8,380.3c22.5,5,94.6,8.5,107.5,3.5"/>
<path class="st3" d="M118.8,310c31.2-1.3,126.7-0.7,134.6,0"/>
<path class="st3" d="M118.8,162c23.9,1.3,125.4-0.8,133.3,2.6"/>
<path class="st1" d="M28,520c10.7,11.3,10,18.7,32,18.7s242.2,0,257.1,0c14.9,0,26.3-10,26.4-13.3"/>
<path class="st3" d="M388,530.8c0,1.4-1.2,2.5-2.7,2.5h-22.9c-1.5,0-2.7-1.1-2.7-2.5v-35.8c0-1.4,1.2-2.5,2.7-2.5h22.9
	c1.5,0,2.7,1.1,2.7,2.5V530.8z"/>
<path class="st3" d="M408,544.9c0,2.5-0.9,4.5-1.9,4.5h-16.1c-1.1,0-1.9-2-1.9-4.5V481c0-2.5,0.9-4.5,1.9-4.5h16.1
	c1.1,0,1.9,2,1.9,4.5V544.9z"/>
<path class="st1" d="M295.3,581.3c0,1.4-1.1,2.5-2.5,2.5H69.2c-1.4,0-2.5-1.1-2.5-2.5l-4-21.5c0-1.4,1.1-2.5,2.5-2.5h231.7
	c1.4,0,2.5,1.1,2.5,2.5L295.3,581.3z"/>
<path class="st1" d="M62.7,578.3H52.3v5.5c0,0-6.5,0-10.5,0s-4,1.5-4,6.5s0,20,0,23s12,6,18,7s7.5,4,12,4.5s44,5,48,5.5s26.5,1,36,4
	s50.5-1,52.5,0s25.5,0.3,45,1.1c19.5,0.9,37.8,0,37.8,0s0.3-38.1-1.3-41.6s-13-4.5-13-4.5"/>
<path class="st1" d="M106.8,657.8c0,1.4-1.1,2.5-2.5,2.5H25.5c-1.4,0-2.5-1.1-2.5-2.5v-22c0-1.4,1.1-2.5,2.5-2.5h78.8
	c1.4,0,2.5,1.1,2.5,2.5V657.8z"/>
<path class="st1" d="M227.8,680.8c0,1.4-1.2,2.5-2.8,2.5h-87.3c-1.5,0-2.8-1.1-2.8-2.5v-22c0-1.4,1.2-2.5,2.8-2.5h87.3
	c1.5,0,2.8,1.1,2.8,2.5V680.8z"/>
<path class="st3" d="M292.8,583.8l18.5,49.5c0,0,23.5-1.5,23.5,2.5s0,24.5,0,24.5s-30.5,3-42.3,3s-38.8-1.5-41.3-3s-2-24.9-2-24.9"
	/>
<path class="st1" d="M55.8,663.3l-18,7.5v21.5c0,0,6,5,14.5,6.5s43.5,8.5,51,10s12,1,23,6.5s27.3,8,59.4,8s52.6-2.5,52.6-5.5
	s36.5-10.5,48.8-13s6.2-5,18.7-5.5s13-5,13.5-11.5s0-17,0-17s-19-5-20-5s-25,0-32.5,2s-13,3-13,3s4.5-13.5-23.5-13.5s-104,0-115.5,0
	s-11,8.5-11,10s-29.5-4-29.5-4H55.8z"/>
<path class="st3" d="M45.8,670.8c20.5,6.5,75,16.5,93,19.5s34.5,6,57.5,4.5s52-6.1,77.5-11.8c25.5-5.7,42.5-12.2,42.5-12.2"/>
<circle class="st4" cx="293.8" cy="344.8" r="31"/>
<circle class="st4" cx="295.6" cy="345.1" r="23.8"/>
</svg>
